<?xml version="1.0" encoding="UTF-8"?>
<svg width="500px" height="500px" viewBox="0 0 500 500" version="1.1" xmlns="http://www.w3.org/2000/svg" xmlns:xlink="http://www.w3.org/1999/xlink">
  <g stroke="none" stroke-width="1" fill="none" fill-rule="evenodd">
    <rect stroke="none" fill="rgb(197 129 50)" fill-rule="nonzero" x="0.5" y="0.5" width="499" height="499"></rect>
    <path d="M436.244144,271.430756 C429.063869,261.59681 416.392795,259.361822 402.876983,265.17279 C399.49803,266.513783 394.4296,268.748771 388.516433,271.430756 L413.013842,200.358144 C415.125688,194.100178 414.703318,187.395215 412.169104,181.584246 C409.634889,175.773278 404.988829,171.303302 399.075661,169.068315 C394.851969,167.280324 390.205909,167.280324 385.982218,168.621317 L388.938802,159.681366 C391.050647,153.4234 390.628278,146.718436 388.094063,140.907468 C385.559849,135.0965 380.913788,130.626524 375.00062,128.391536 C363.174285,123.921561 350.080842,130.626524 345.85715,142.695458 C343.322936,139.119478 339.521614,135.990495 335.297922,134.202505 C323.471587,129.732529 310.378144,136.437493 305.732083,148.953424 L301.508392,161.469356 C298.974177,157.893376 295.172855,154.764393 290.949164,153.4234 C279.122828,148.953424 266.029385,155.658388 261.383325,168.621317 L247.867513,208.851097 L241.531976,191.86519 C239.42013,185.607224 234.77407,180.690251 229.283271,178.008266 C223.792472,175.32628 217.879304,175.32628 212.388506,177.561268 C208.164814,179.349258 204.785861,182.478241 202.251647,186.054222 L197.605586,173.985288 C195.493741,167.727322 190.84768,162.810349 185.356881,160.128363 C179.866083,157.446378 173.952915,157.446378 168.462116,159.681366 C164.238425,161.469356 160.859472,164.598339 158.325257,168.174319 C155.791042,162.363351 151.567351,157.893376 146.076552,155.21139 C140.585754,152.529405 134.672586,152.529405 129.181787,154.764393 C117.777821,159.681366 111.864653,173.985288 116.510713,186.501219 L119.889666,195.441171 C115.665975,194.547176 111.442284,194.547176 107.218593,196.335166 C95.8146261,201.252139 89.9014583,215.556061 94.5475187,228.071993 L124.535727,308.531554 L106.373854,296.909617 C101.305425,293.333637 95.392257,291.545646 89.9014583,292.439641 C83.9882905,293.333637 78.4974918,296.909617 75.1185388,302.273588 C67.9382636,313.001529 70.4724784,328.199446 80.1869683,336.245402 C83.9882905,340.26838 132.983109,381.392156 150.722613,394.802083 C163.816056,404.636029 179.866083,410 195.91611,410 C206.475338,410 217.456935,407.765012 228.016163,403.295037 C244.48856,396.143076 258.426741,384.074141 267.718862,367.982229 C272.787291,371.55821 278.27809,374.240195 284.191258,376.475183 C293.905748,380.051163 304.042607,381.839154 314.179466,381.839154 C331.918969,381.839154 348.813734,376.028185 363.174285,364.853246 C380.913788,350.996322 429.486238,308.084556 432.442822,305.402571 C442.157312,297.356615 443.846788,281.7117 436.244144,271.430756 Z M223.792472,393.014093 C200.56217,402.848039 175.642391,400.166054 156.213412,385.862132 C138.896277,372.452205 88.2119818,329.540439 87.7896127,329.093441 C87.7896127,329.093441 87.7896127,329.093441 87.7896127,329.093441 C82.298814,324.623466 81.0317066,316.130512 84.8330288,309.872546 C86.5225053,307.190561 89.4790892,304.955573 92.8580422,304.508576 C96.2369952,304.061578 99.1935792,304.955573 101.727794,306.743563 C101.727794,306.743563 102.150163,306.743563 102.150163,307.190561 L133.827848,327.305451 C135.517324,328.646444 138.051539,328.199446 139.741016,326.858454 C141.430492,325.517461 141.852861,322.835476 141.008123,320.600488 L105.106747,224.94301 C102.572532,217.791049 105.529116,210.19209 111.864653,207.510105 C114.398868,206.61611 117.355452,206.61611 120.312036,207.957102 C123.26862,209.298095 125.802834,211.98008 127.492311,215.109063 L146.498922,266.96078 C147.34366,269.195768 149.455506,270.536761 151.144982,270.536761 C151.567351,270.536761 152.412089,270.536761 152.834459,270.089763 C155.368673,269.195768 156.635781,265.619788 155.791042,262.937802 L137.206801,212.874076 C137.206801,212.874076 137.206801,212.427078 137.206801,212.427078 C137.206801,211.98008 136.784432,211.533083 136.784432,211.086085 L126.647573,183.372237 C124.113358,176.220276 127.069942,168.621317 133.405479,165.939332 C136.362063,164.598339 139.741016,164.598339 142.697599,165.939332 C145.654183,167.280324 148.188398,169.96231 149.455506,173.53829 L156.213412,192.312188 C156.213412,192.312188 156.213412,192.312188 156.213412,192.312188 L178.176606,252.656858 C179.021345,254.891846 181.13319,256.232839 182.822667,256.232839 C183.245036,256.232839 184.089774,256.232839 184.512143,255.785841 C187.046358,254.891846 188.313465,251.315866 187.468727,248.63388 L166.350271,190.0772 C166.350271,190.0772 166.350271,190.0772 166.350271,190.0772 L165.927902,188.736207 C163.393687,181.584246 166.350271,173.985288 172.685808,171.303302 C175.642391,169.96231 179.021345,169.96231 181.977928,171.303302 C184.934512,172.644295 187.468727,175.32628 188.735834,178.902261 L200.139801,209.298095 C200.139801,209.298095 200.139801,209.298095 200.139801,209.298095 C200.139801,209.745093 200.139801,209.745093 200.56217,210.19209 L215.767459,252.656858 C216.612197,255.338844 219.99115,256.679837 222.525365,255.785841 C225.05958,254.891846 226.326687,251.315866 225.481949,248.63388 L209.854291,206.169112 C207.320076,199.017151 210.27666,191.418193 216.612197,188.736207 C219.568781,187.395215 222.947734,187.395215 225.904318,188.736207 C228.860902,190.0772 231.395117,192.759185 232.662224,196.335166 L266.451754,289.310658 C280.389935,331.328429 261.805694,376.92218 223.792472,393.014093 Z M425.684916,296.909617 C425.684916,296.909617 425.684916,296.909617 425.684916,296.909617 C425.262547,297.356615 374.155882,342.056371 356.838748,355.913295 C337.832137,371.111212 311.645251,374.687193 287.99258,365.747241 C282.92415,363.959251 277.855721,361.277266 273.20966,358.148283 C273.632029,357.254288 274.054399,356.360293 274.476768,355.0193 C283.346519,333.116419 284.191258,308.531554 276.588613,285.734678 C276.588613,285.734678 276.588613,285.734678 276.588613,285.734678 L254.203049,224.94301 L271.520184,172.644295 C274.054399,165.492334 281.234674,161.916354 287.570211,164.151341 C290.526795,165.492334 293.061009,167.727322 294.750486,170.856305 C296.017593,173.985288 296.439962,178.008266 295.172855,181.137249 L279.967566,226.731 C279.122828,229.412985 280.389935,232.541968 282.92415,233.882961 C283.346519,233.882961 284.191258,234.329958 284.613627,234.329958 C286.725472,234.329958 288.837318,232.988966 289.682056,230.753978 L304.887345,185.160227 C304.887345,184.713229 304.887345,184.713229 305.309714,184.266232 C305.309714,184.266232 305.309714,184.266232 305.309714,184.266232 L315.868942,153.4234 C318.403157,146.271439 325.583432,142.695458 331.918969,144.930446 C334.875553,146.271439 337.409768,148.506427 339.099244,151.63541 C340.366352,154.764393 340.788721,158.787371 339.521614,162.363351 L339.099244,163.704344 C339.099244,163.704344 339.099244,163.704344 339.099244,163.704344 L317.980788,228.51899 C317.13605,231.200976 318.403157,234.329958 321.359741,235.670951 C321.78211,235.670951 322.626848,236.117949 323.049218,236.117949 C325.161063,236.117949 327.272909,234.776956 328.117647,232.541968 L350.080842,166.386329 L356.416379,147.612432 C358.950593,140.460471 366.130869,136.88449 372.466406,139.119478 C375.42299,140.460471 377.957204,142.695458 379.646681,145.824441 C380.913788,148.953424 381.336157,152.976402 380.06905,156.105385 L370.776929,182.925239 C370.35456,183.819234 370.35456,184.266232 369.932191,185.160227 C369.932191,185.607224 369.932191,186.054222 369.509822,186.054222 L350.503211,241.481919 C349.658473,244.163905 350.92558,247.292888 353.459795,248.63388 C353.882164,248.63388 354.726902,249.080878 355.149271,249.080878 C357.261117,249.080878 359.372963,247.739885 360.217701,245.504898 L380.06905,187.395215 C383.025634,181.137249 390.205909,177.561268 395.696708,179.796256 C398.653292,181.137249 401.187506,183.372237 402.876983,186.501219 C404.14409,189.630202 404.566459,193.65318 403.299352,196.782163 L375.42299,276.794727 C370.776929,278.582717 366.553238,280.370707 364.441392,281.264702 C337.832137,270.536761 323.471587,283.052693 311.645251,292.886639 C309.533405,294.674629 309.111036,298.25061 310.800513,300.485598 C312.489989,302.720585 315.868942,303.167583 317.980788,301.379593 C329.384754,291.545646 339.943983,282.158698 362.329547,291.992644 C363.596654,292.439641 364.863761,292.439641 366.130869,291.992644 C367.397976,291.545646 396.541446,279.476712 406.678305,275.006737 C412.169104,272.771749 422.305963,269.642766 427.796761,277.688722 C432.442822,283.946688 431.175715,292.439641 425.684916,296.909617 Z" id="Shape" fill="#FFFFFF" fill-rule="nonzero"></path>
    <path d="M132.09301,108.639522 L153.432567,127.078072 C154.12094,127.539036 154.809312,128 155.841872,128 C157.218617,128 158.595363,127.078072 159.283735,125.234217 C160.660481,122.468435 159.972108,119.241688 157.90699,117.397833 L136.567433,98.9592825 C134.502315,97.1154274 132.09301,98.037355 130.716265,100.803138 C129.339519,103.56892 130.027892,106.795667 132.09301,108.639522 Z" fill="#FFFFFF"></path>
    <path d="M191.540628,109.145206 C192.556879,111.554452 194.589382,113 197.638136,113 C198.146261,113 199.162512,113 199.670638,112.518151 C202.719392,111.554452 204.751894,108.181507 203.735643,104.808562 L186.459372,57.1054809 C185.443121,54.2143851 181.886241,52.2869879 178.329362,53.2506865 C175.280608,54.2143851 173.248106,57.5873302 174.264357,60.9602754 L191.540628,109.145206 Z" fill="#FFFFFF"></path>
    <path d="M239.201909,97.6795455 C239.812443,98 241.033511,98 241.644045,98 C244.696716,98 247.749386,97.0386366 248.35992,95.4363643 L263.623273,73.3250062 C264.844341,71.4022794 263.012739,69.1590982 259.349534,68.1977348 C255.68633,67.5568258 251.412591,68.5181892 249.580989,70.440916 L234.317636,92.5522741 C233.096568,94.7954554 235.538704,97.0386366 239.201909,97.6795455 Z" fill="#FFFFFF"></path>
  </g>
</svg>
